<!-- Generated by IcoMoon.io -->
<svg version="1.1" xmlns="http://www.w3.org/2000/svg" width="32" height="32" viewBox="0 0 32 32">
<title>allocine</title>
<path d="M27.263 28.216l-4.32-27.289c-0.081-0.527-0.531-0.926-1.075-0.926-0.056 0-0.112 0.004-0.166 0.013l0.001-0.001-4.56 0.735c0.025 0.158 0.040 0.341 0.040 0.527 0 1.938-1.571 3.509-3.509 3.509-1.736 0-3.178-1.261-3.46-2.917l-0.003-0.021-4.56 0.723c-0.528 0.080-0.928 0.531-0.928 1.075 0 0.056 0.004 0.112 0.013 0.166l-0.001-0.006v0.004l4.325 27.277c0.092 0.591 0.645 0.995 1.237 0.903h0.001l4.561-0.723c-0.032-0.179-0.051-0.386-0.051-0.596 0-1.941 1.574-3.515 3.515-3.515 1.768 0 3.231 1.306 3.478 3.005l0.002 0.019 4.56-0.721c0.52-0.084 0.913-0.53 0.913-1.067 0-0.059-0.005-0.116-0.014-0.173l0.001-0zM19.693 10.947l-1.64 2.407c-0.144 0.188-0.341 0.328-0.569 0.398l-0.008 0.002c-0.679 0.16-1.665-1.283-2.363 2.007-0.699 3.289 0.789 2.379 1.339 2.808 0.178 0.149 0.31 0.347 0.375 0.573l0.002 0.008 0.525 2.856h-0.016c0.007 0.039 0.010 0.084 0.010 0.129 0 0.322-0.189 0.599-0.463 0.727l-0.005 0.002c-0.605 0.244-1.556 0.569-2.117 0.449-1.204-0.257-3.117-3.237-2.083-8.096 1.036-4.857 3.992-6.771 5.195-6.513 0.551 0.12 1.296 0.801 1.753 1.271 0.123 0.14 0.198 0.325 0.198 0.528 0 0.165-0.050 0.319-0.136 0.447l0.002-0.003z"></path>
</svg>
