<!-- Generated by IcoMoon.io -->
<svg version="1.1" xmlns="http://www.w3.org/2000/svg" width="32" height="32" viewBox="0 0 32 32">
<title>audacity</title>
<path d="M9.636 11.208c-0 0-0.001 0-0.001 0-0.279 0-0.512 0.204-0.561 0.474l-0.001 0.004-2.054 11.623c-0.009 0.038-0.014 0.082-0.014 0.128 0 0.321 0.256 0.581 0.571 0.581 0.288 0 0.527-0.218 0.565-0.5l0-0.003 1.233-6.971 0.833 12.718c0.023 0.302 0.269 0.538 0.569 0.538 0.299 0 0.544-0.234 0.569-0.532l0-0.002 0.593-8.458 0.552 7.298c0.025 0.3 0.27 0.533 0.569 0.533 0.296 0 0.539-0.229 0.568-0.523l0-0.002 0.699-7.833 0.451 3.214c0.042 0.282 0.279 0.496 0.565 0.496 0.271 0 0.497-0.192 0.556-0.449l0.001-0.004 1.155-5.29v8.651c0.001 0.321 0.256 0.58 0.571 0.58 0.284 0 0.52-0.212 0.564-0.488l0-0.003 1.679-11.111 1.758 13.424c0.040 0.285 0.278 0.502 0.565 0.502 0.296 0 0.54-0.23 0.568-0.524l0-0.002 0.898-10.059 1.075 3.22c0.079 0.231 0.291 0.395 0.541 0.395 0.315 0 0.571-0.26 0.571-0.581 0-0.067-0.011-0.132-0.032-0.192l0.001 0.004-1.941-5.81c-0.079-0.232-0.291-0.395-0.541-0.395-0.297 0-0.541 0.231-0.568 0.527l-0 0.002-0.68 7.617-1.61-12.29c-0.038-0.287-0.277-0.506-0.566-0.506-0.285 0-0.521 0.213-0.564 0.491l-0 0.003-1.148 7.598v-6.347c-0.002-0.319-0.257-0.578-0.571-0.578-0.27 0-0.496 0.191-0.555 0.447l-0.001 0.004-1.604 7.35-0.699-4.982c-0.043-0.282-0.279-0.495-0.564-0.495-0.296 0-0.539 0.229-0.568 0.522l-0 0.002-0.526 5.891-0.62-8.207c-0.025-0.3-0.27-0.534-0.569-0.534-0.3 0-0.546 0.236-0.569 0.536l-0 0.002-0.552 7.874-0.592-9.032c-0.020-0.304-0.267-0.542-0.568-0.543h-0z"></path>
<path d="M16.131 1.848c-3.312 0-6.616 1.053-8.844 2.821s-3.675 4.297-3.675 7.111v1.017c-2.212 1.141-3.46 4.134-3.46 7.642 0 4.491 2.509 8.136 5.743 8.136v-16.795c0-2.107 1.071-4.047 2.911-5.506s4.437-2.107 7.327-2.107c2.89 0 5.488 0.647 7.327 2.107s2.91 3.399 2.91 5.506v16.795c3.234 0 5.742-3.645 5.742-8.136 0-3.509-1.191-6.501-3.403-7.642v-1.017c0-2.814-1.446-5.343-3.674-7.111s-5.591-2.821-8.902-2.821zM6.43 12.303v16.272c0.457 0 0.913-0.259 1.141-0.775v-14.98c-0.228-0.258-0.685-0.516-1.141-0.516zM25.835 12.303c-0.457 0-0.913 0.258-1.141 0.516v14.98c0.228 0.517 0.685 0.775 1.141 0.775v-16.27z"></path>
</svg>
