<!-- Generated by IcoMoon.io -->
<svg version="1.1" xmlns="http://www.w3.org/2000/svg" width="32" height="32" viewBox="0 0 32 32">
<title>counterstrike</title>
<path d="M19.174 9.516c-0.076 0.9-0.677 0.518-1.328 1.009-0.175-0.027-0.376-0.027-0.651-0.027-0.050-0.6 0.151-0.709 0.25-0.818 0.401-0.327 0.677-0.164 0.677-0.164 0.3-0.055 0.574 0.027 1.051-0zM20.675 8.043h-0.875v-0.245h-0.475v0.136c-0.051 0.027-0.101 0.082-0.151 0.109h-0.050c-0.828-0.709-0.877 0.737-1.429 0.409-0.050-0.3-0.025-0.573-0.025-0.927 0.952-0.028 0.601-0.3 0.326-0.654-0.099-0.137-0.151-0.355-0.175-0.491-0.225-0.899-1.151-1.444-2.502-0.871-0.877 0.354-0.651 1.636-0.576 2.509-0.050 0.081-0.151 0.055-0.225 0.055-0.952 0.055-1.377 1.145-1.578 2.018 0.050 0.791-0.050 1.664-0.175 2.427s-0.376 1.364-0.401 2.1c-0.050 0.655 0.175 1.418 0.126 2.018-0.527 1.691-0.903 2.809-1.177 4.609-0.2 0.409-0.9 1.281-1.177 1.473-0.074 0.136 0.050 0.436-0.074 0.627-0.225 0.354-0.576 0.545-0.776 0.927 0.050 0.081-0.301 0.164-0.275 0.3 0.025 0.136 0.2 0.49 0.275 0.572 0.025 0.055 0.275-0.082 0.275 0 0.101 0.327 0.326 1.009 0.576 1.172 1.103 0.136 1.103 0.136 1.553 0 0.25-0.791-0.851-0.436-0.752-1.5 1.503-0.327 1.978-0.791 2.579-2.509 0.275-1.255 0.651-2.481 1.226-3.681 0.099-0.081 0.074-0.3 0.25-0.382 0.675 1.227 1.904 2.1 2.503 3.382 0.151 1.663 0.452 2.563 0.977 2.863 0.126 0.055 0 0.572 0.101 0.681 0 0.164 0.050 0.354-0.025 0.545-0.051 0.137-0.025 0.3-0.025 0.436v0.164c0.025 0.246 0.074 0.246 0.3 0.436 0.651 0.463 1.528 1.2 2.403 0.654 0.401-0.71-0.45-1.609-1.051-2.073-0.2-0.164-0.551-0.572-0.502-0.845 0.326-0.355 0.551-1.909 0.425-3.109-0.050-0.272-0.099-0.545-0.2-0.764-0.3-0.627-0.975-1.5-1.551-2.127 0.074-0.081 0.175-0.191 0.3-0.246 0-0.6-0.225-0.791-0.524-1.227-0.252-0.436-0.826-1.281-1.253-1.554 0 0 0-0.028-0.425-0.028-0.025-0.3 0.051-0.545 0.126-0.873 0-0.245 0.175-0.109 0.225-0.655 0.126-0.463 0.074-0.191 0.175-0.654 0.099-0.218 0.151-0.436 0.151-0.791 0.374 0.137 1.125 0.109 1.451 0l0.074 0.055c0.101 0.028 0.126-0.136 0.2-0.163 0.576-0.328 0.776-0.9 1.251-0.955 0 0 0.252-0.137 0.625 0 0.151 0 0.277 0.027 0.277-0.137 0.025-0.245 0.025-0.436 0.151-0.6 0.099 0.655 0.374 1.391 0.875 2.1l0.5-0.381c-0.475-0.627-0.774-1.336-0.826-2.154 0.025 0.055 0.051 0.109 0.101 0.164 0.175 0 0.275-0.409 0.475-0.382 0.025-0.055 0.076-0.3 0.126-0.491h1.877l0.675-0.163v-0.382l-0.5-0.055v-0.436h-0.126v-0.491h-0.3v0.464l-0.776-0.055v-0.3h-0.3v0.273l-0.801-0.081v-0.409h-0.301v0.382l-1.177-0.081v-0.136h0.001z"></path>
<path fill="none" opacity="0.98" stroke="#000" stroke-linejoin="miter" stroke-linecap="butt" stroke-miterlimit="4" stroke-width="1.2633" d="M31.395 16.055c0 8.523-6.91 15.433-15.433 15.433s-15.433-6.91-15.433-15.433c0-8.523 6.91-15.433 15.433-15.433s15.433 6.91 15.433 15.433z"></path>
</svg>
