<!-- Generated by IcoMoon.io -->
<svg version="1.1" xmlns="http://www.w3.org/2000/svg" width="32" height="32" viewBox="0 0 32 32">
<title>dassaultsystemes</title>
<path d="M28.215 10.72c1.417 0.256 2.573 0.453 2.839 1.053 0.297 0.677-1.247 0.72-2.024 0.735-3.729 0.072-5.977 0.147-6.091 1.413-0.147 1.631 1.593 3.272 3.312 5.575 1.569 2.101 3.353 4.176 2.84 6.109-0.641 2.409-3.595 2.92-6.407 2.92-2.693 0.001-5.247-0.431-6.319-0.643-1.335-0.264-1.136-0.924-0.78-1.136 0.397-0.237 2.667-0.243 4.245-0.336 1.299-0.077 5.069-0.075 5.657-1.040 0.72-1.184-1.044-3.208-2.665-5.328-2.023-2.644-4.244-5.375-3.068-7.369 1.52-2.58 5.973-2.403 8.46-1.953zM9.976 14.649c2.361-0.139 5.231 0.275 6.84 1.507 0.803 0.613 1.365 1.74 1.040 3.032-0.931 3.667-4.401 8.104-12.113 11.513-2.453 1.084-4.381 1.499-4.787 1.208-0.435-0.312 0.831-2.733 1.211-3.536 1.232-2.6 2.769-5.133 4.269-7.453 0.552-0.853 1.405-2.333 2.177-2.215 0.691 0.107-0.119 1.68-0.651 2.68-0.895 1.677-3.36 6.34-2.547 6.619 1.797 0.616 10.231-5.8 8.987-9.372-0.576-1.659-4.237-1.816-6.544-1.816-1.048 0-3.34 0.248-3.467-0.556-0.136-0.74 3.48-1.487 5.584-1.611zM15.801 0.045c2.755-0.131 6.013 0.456 6.62 2.4 0.996 3.184-4.048 7.829-8.443 10.108-1.077 0.56-1.731 0.713-2.003 0.675-0.26-0.036-0.3-0.295-0.216-0.473 0.157-0.335 0.865-1.017 1.813-1.76 4.948-3.863 6.557-6.699 5.623-7.847-0.599-0.736-3.107-1.248-5.711-1.248-0.707 0-2.565 0.164-2.756-0.489-0.156-0.537 2.337-1.237 5.071-1.365z"></path>
</svg>
