<!-- Generated by IcoMoon.io -->
<svg version="1.1" xmlns="http://www.w3.org/2000/svg" width="32" height="32" viewBox="0 0 32 32">
<title>gnucash</title>
<path d="M16.073 6.285c-4.093 0.002-7.601 2.509-9.073 6.071l-0.024 0.065h-1.949l-1.227 2.454h2.543c-0.052 0.365-0.084 0.79-0.089 1.222l-0 0.005-1.227 2.454h1.553c1.128 4.264 4.948 7.357 9.491 7.364h0.001c3.091-0 5.849-1.429 7.648-3.663l0.015-0.019h-3.6c-1.143 0.768-2.549 1.226-4.063 1.227h-0c-3.184-0.004-5.893-2.027-6.918-4.858l-0.016-0.051h8.161l1.227-2.454h-9.818c0.003-0.435 0.043-0.86 0.117-1.272l-0.007 0.045h9.708l1.227-2.454h-10.050c1.295-2.214 3.66-3.678 6.368-3.682h0c1.513 0.002 2.919 0.46 4.088 1.244l-0.027-0.017h3.592c-1.812-2.25-4.565-3.678-7.652-3.682h-0.001z"></path>
<path d="M16.073 0.149c-8.839 0-15.954 7.116-15.954 15.954s7.116 15.954 15.954 15.954c8.839 0 15.954-7.116 15.954-15.954s-7.116-15.954-15.954-15.954zM16.073 2.604c7.522 0 13.5 5.978 13.5 13.5s-5.978 13.5-13.5 13.5c-7.521 0-13.5-5.978-13.5-13.5s5.978-13.5 13.5-13.5z"></path>
</svg>
