<!-- Generated by IcoMoon.io -->
<svg version="1.1" xmlns="http://www.w3.org/2000/svg" width="32" height="32" viewBox="0 0 32 32">
<title>ipfs</title>
<path d="M16.356 0.001l-13.838 7.99v15.979l13.838 7.99 13.838-7.99v-15.979zM14.927 1.926c0.846 0.624 2 0.624 2.846 0l10.033 5.793c-0.020 0.178-0.020 0.358 0 0.536l-10.033 5.793c-0.846-0.624-2-0.624-2.846 0l-10.033-5.793c0.020-0.178 0.020-0.358 0-0.536l10.033-5.793zM28.771 9.855c0.144 0.106 0.3 0.196 0.464 0.268v11.586c-0.964 0.421-1.541 1.42-1.423 2.465l-10.033 5.793c-0.144-0.106-0.3-0.196-0.464-0.268l-0.011-11.521c0.964-0.421 1.541-1.42 1.423-2.465l10.045-5.858zM3.94 9.92l10.033 5.793c-0.118 1.045 0.46 2.044 1.423 2.465v11.586c-0.164 0.072-0.32 0.162-0.464 0.268l-10.033-5.793c0.118-1.045-0.459-2.044-1.423-2.465v-11.586c0.164-0.072 0.32-0.162 0.464-0.268z"></path>
<path d="M30.195 7.991l-13.838 7.99v15.979l13.838-7.99zM28.771 9.855c0.144 0.106 0.3 0.196 0.464 0.268v11.586c-0.964 0.421-1.541 1.42-1.423 2.465l-10.033 5.793c-0.144-0.106-0.3-0.196-0.464-0.268l-0.011-11.521c0.964-0.421 1.541-1.42 1.423-2.465l10.045-5.858z"></path>
<path d="M2.518 7.991v15.979l13.838 7.99v-15.979zM3.941 9.919l10.033 5.793c-0.118 1.045 0.46 2.044 1.423 2.465v11.586c-0.164 0.072-0.32 0.162-0.464 0.268l-10.033-5.793c0.118-1.045-0.459-2.044-1.423-2.465v-11.586c0.164-0.072 0.32-0.162 0.464-0.268z"></path>
<path d="M16.356 0.001l-13.838 7.99 13.838 7.99 13.838-7.99zM14.927 1.926c0.846 0.624 2 0.624 2.846 0l10.033 5.793c-0.020 0.178-0.020 0.358 0 0.536l-10.033 5.793c-0.846-0.624-2-0.624-2.846 0l-10.033-5.793c0.020-0.178 0.020-0.358 0-0.536l10.033-5.793z"></path>
<path d="M2.518 7.991l1.423 1.929 10.034 5.793 1.423 2.465-0 11.586 0.959 2.197 0.959-2.261-0.011-11.522 1.423-2.465 10.044-5.858 1.423-1.864-2.387 0.264-10.033 5.793h-2.846l-10.033-5.793z"></path>
</svg>
