<!-- Generated by IcoMoon.io -->
<svg version="1.1" xmlns="http://www.w3.org/2000/svg" width="32" height="32" viewBox="0 0 32 32">
<title>kde</title>
<path d="M18.015 0.051l-4.586 0.912v19.466l4.561-0.713v-8.232l6.416 9.147 5.005-2.287-6.834-7.774 6.886-8.232-5.057-2.287-6.416 9.604v-9.604z"></path>
<path d="M7.212 7.371c-0.056 0.007-0.118 0.020-0.161 0.063l-1.952 1.938c-0.082 0.082-0.091 0.205-0.031 0.304l2.077 3.403c-0.488 0.792-0.867 1.655-1.121 2.572l-3.828 0.79c-0.116 0.024-0.201 0.136-0.201 0.255v2.738c0 0.116 0.088 0.214 0.201 0.241l3.711 0.893c0.234 1.032 0.628 2.005 1.152 2.89l-2.162 3.269c-0.066 0.099-0.053 0.233 0.031 0.317l1.952 1.938c0.082 0.082 0.209 0.091 0.308 0.031l3.376-2.037c0.834 0.498 1.744 0.88 2.711 1.121l0.79 3.765c0.025 0.116 0.121 0.201 0.241 0.201h2.76c0.115 0 0.214-0.076 0.241-0.188l0.938-3.792c0.975-0.253 1.883-0.66 2.72-1.175l3.39 2.206c0.1 0.064 0.232 0.052 0.317-0.031l1.943-1.934c0.082-0.082 0.101-0.21 0.040-0.308l-1.326-2.166-0.433 0.134c-0.063 0.019-0.133-0.008-0.17-0.063 0 0-0.41-0.558-0.737-1-0.136-0.207-1.26-1.573-2.037-2.564-1.106 2.389-3.482 4.017-6.239 4.020h-0c-3.789 0-6.86-3.071-6.86-6.86v0c0.002-2.43 1.268-4.564 3.175-5.781l0.028-0.017v-3.635c-0.51 0.19-0.846 0.422-1.313 0.688l-3.376-2.193c-0.050-0.033-0.101-0.041-0.156-0.036z"></path>
</svg>
