<!-- Generated by IcoMoon.io -->
<svg version="1.1" xmlns="http://www.w3.org/2000/svg" width="32" height="32" viewBox="0 0 32 32">
<title>mercode</title>
<path d="M30.655 9.369c-0.1-0.22-0.206-0.44-0.324-0.659-0.545-1.038-1.139-1.932-1.813-2.758l0.023 0.029c-9.794 4.598-21.455 6.028-28.093 6.473-0.274 1.107-0.43 2.378-0.43 3.685 0 2.129 0.416 4.161 1.171 6.018l-0.038-0.107c8.614-2.809 22.387-7.745 29.441-12.623z"></path>
<path d="M8.667 1.876c-3.021 1.588-5.416 4.019-6.917 6.979l-0.042 0.091c3.983-1.228 12.919-4.285 18.304-8.401-1.18-0.311-2.535-0.49-3.932-0.49-2.71 0-5.263 0.674-7.501 1.863l0.087-0.042z"></path>
<path d="M30.221 23.705c-6.277 1.82-11.739 4.669-16.483 8.39l0.104-0.079c0 0 0 0.011 0 0.018 0.675 0.101 1.454 0.158 2.247 0.158 6.092 0 11.391-3.394 14.109-8.395l0.042-0.084z"></path>
<path d="M31.998 14.12l-23.889 15.916c-0 0.004-0.001 0.009-0.001 0.014s0 0.010 0.001 0.014l-0-0.001c0.903 0.53 1.948 1.002 3.044 1.359l0.114 0.032h-0.011c3.57-3.209 10.873-8.888 20.39-11.652l0.068-0.024c0.267-1.097 0.421-2.357 0.421-3.653 0-0.704-0.045-1.398-0.133-2.078l0.008 0.080z"></path>
<path d="M5.796 28.298c14.38-8.234 5.387-7.896-3.083-3.316l-0.015 0.018c0.851 1.278 1.829 2.379 2.94 3.33l0.022 0.018c0.038-0.018 0.083-0.035 0.13-0.049l0.006-0.002z"></path>
</svg>
