<!-- Generated by IcoMoon.io -->
<svg version="1.1" xmlns="http://www.w3.org/2000/svg" width="32" height="32" viewBox="0 0 32 32">
<title>monzo</title>
<path d="M15.987 23.013h0.013l7.907-7.893v14.72c0.012 0.322 0.276 0.579 0.6 0.579 0.16 0 0.306-0.063 0.414-0.166l-0 0 6.64-6.627c0.264-0.267 0.427-0.634 0.427-1.040 0-0.009-0-0.019-0-0.028l0 0.001v-15.507l0.013-0.013-5.307-5.293c-0.107-0.109-0.255-0.177-0.42-0.177s-0.313 0.068-0.42 0.177l-0 0-9.853 9.84-9.88-9.867c-0.107-0.109-0.255-0.177-0.42-0.177s-0.313 0.068-0.42 0.177l-0 0-5.28 5.32v15.547c-0 0.004-0 0.009-0 0.014 0 0.405 0.163 0.773 0.427 1.040l-0-0 6.627 6.64c0.107 0.102 0.253 0.165 0.413 0.165 0.329 0 0.595-0.264 0.6-0.591v-0l0.013-14.747 7.907 7.92z"></path>
</svg>
