<!-- Generated by IcoMoon.io -->
<svg version="1.1" xmlns="http://www.w3.org/2000/svg" width="32" height="32" viewBox="0 0 32 32">
<title>openshot</title>
<path d="M20.276 0.758c-2.531 1.43-8.975 5.54-8.451 9.159 0.724 5.008 10.885 4.161 11.193 8.080 0.401 5.088-8.073 10.246-12.456 12.487 1.828 0.721 3.775 1.092 5.74 1.093 8.655 0 15.67-7.016 15.67-15.67-0.004-7.12-4.809-13.343-11.696-15.149z"></path>
<path d="M2.747 8.072c-0.707 1.228-1.245 2.546-1.598 3.918h3.959v7.835h-3.968c0.358 1.373 0.9 2.691 1.612 3.918h27.103c0.209-0.365 0.404-0.739 0.583-1.119h-1.265v-1.679h1.679v0.743c0.239-0.608 0.44-1.23 0.601-1.863h-3.4v-7.835h3.408c-0.163-0.64-0.367-1.269-0.61-1.883v0.764h-1.679v-1.679h1.269c-0.182-0.381-0.38-0.754-0.592-1.119h-1.236zM2.31 9.191h1.679v1.679h-1.679zM5.668 9.191h1.679v1.679h-1.679zM9.026 9.191h1.679v1.679h-1.679zM12.384 9.191h1.679v1.679h-1.679zM15.742 9.191h1.679v1.679h-1.679zM19.1 9.191h1.679v1.679h-1.679zM22.458 9.191h1.679v1.679h-1.679zM25.816 9.191h1.679v1.679h-1.679zM7.906 11.989h7.276v7.835h-7.276zM17.98 11.989h7.276v7.835h-7.276zM2.31 20.944h1.679v1.679h-1.679zM5.668 20.944h1.679v1.679h-1.679zM9.026 20.944h1.679v1.679h-1.679zM12.384 20.944h1.679v1.679h-1.679zM15.742 20.944h1.679v1.679h-1.679zM19.1 20.944h1.679v1.679h-1.679zM22.458 20.944h1.679v1.679h-1.679zM25.816 20.944h1.679v1.679h-1.679z"></path>
<path fill="none" stroke="#000" stroke-linejoin="miter" stroke-linecap="butt" stroke-miterlimit="4" stroke-width="1.0439" d="M31.748 16.018c0 8.581-6.957 15.538-15.538 15.538s-15.538-6.957-15.538-15.538c0-8.581 6.957-15.538 15.538-15.538s15.538 6.957 15.538 15.538z"></path>
</svg>
