<!-- Generated by IcoMoon.io -->
<svg version="1.1" xmlns="http://www.w3.org/2000/svg" width="32" height="32" viewBox="0 0 32 32">
<title>pardus</title>
<path d="M31.925 4.126c-0.152-0.455-0.629-1.266-1.058-1.808s-1.13-1.183-1.554-1.425c-0.425-0.243-2.369 0.288-3.351 0.739l-0.716 0.326c-0.982 0.451-1.801 0.823-1.816 0.834-0.015 0.008-0.133 0-0.22-0.038-0.091-0.038-1.183-0.307-2.237-0.553l-1.884-0.44c-1.054-0.246-2.267-0.481-2.699-0.523s-2.271 0.269-3.324 0.508l-2.017 0.462c-1.054 0.243-1.99 0.462-2.077 0.489-0.091 0.027-0.337 0.118-0.356 0.106-0.015-0.011-0.864-0.398-1.85-0.849l-0.716-0.326c-0.986-0.451-2.199-0.849-2.695-0.883-0.5-0.038-1.778 1.027-2.21 1.569-0.44 0.546-0.914 1.361-1.069 1.812-0.152 0.451 0.675 2.237 1.281 3.131l1.236 1.835c0.603 0.895 0.936 1.933 0.739 2.301-0.197 0.371-0.47 1.031-0.603 1.463-0.133 0.436 0.019 2.343 0.201 3.412l0.387 2.274c0.182 1.065 0.519 2.293 0.754 2.729s2.089 1.205 3.139 1.467l0.47 0.117c1.050 0.262 2.426 1.19 3.055 2.066l0.849 1.171c0.633 0.876 1.456 1.838 1.831 2.138s1.96 0.546 2.582 0.546c0.625 0 1.513-0.106 1.975-0.235s1.808-1.573 2.437-2.449l0.834-1.156c0.633-0.876 2.009-1.808 3.055-2.074l0.489-0.121c1.050-0.262 2.248-0.698 2.665-0.963s1.042-2.176 1.224-3.241l0.387-2.274c0.182-1.065 0.318-2.309 0.307-2.767-0.011-0.455-0.508-1.736-0.709-2.108-0.197-0.368 0.136-1.406 0.739-2.301l1.236-1.835c0.61-0.891 1.44-2.672 1.289-3.127zM2.528 6.211c-0.538-0.796-1.001-1.509-1.027-1.581 0 0 0 0 0-0.083 0-0.102 0-0.102 0-0.102 0.042-0.095 0.428-0.614 0.857-1.156s0.849-1.016 0.936-1.058c0.083-0.042 1.122 0.372 2.104 0.819l0.155 0.072c0.982 0.451 1.774 0.842 1.755 0.868s-0.478 0.883-0.986 1.835l-0.864 1.615c-0.516 0.951-2.396-0.432-2.93-1.228zM27.842 13.591c0.011 0.262-0.125 1.353-0.307 2.419l-0.387 2.274c-0.182 1.065-0.394 2.047-0.474 2.18s-0.989 0.455-1.77 0.652c-0.781 0.197-1.395 0.227-1.365 0.072s-0.425-1.255-1.008-2.104c-0.584-0.849-1.061-1.52-1.061-1.494 0 0.030 0.133 0.728 0.284 1.486 0.148 0.758 0.258 1.566 0.243 1.797s-0.28 0.766-0.368 0.887c-0.087 0.121-0.474 0.66-0.864 1.198s-1.168 1.619-1.732 2.403c-0.565 0.781-1.16 1.52-1.323 1.645-0.163 0.121-1.080 0.224-1.706 0.224s-1.296-0.049-1.49-0.114c-0.193-0.061-0.978-0.978-1.55-1.766-0.569-0.788-1.353-1.876-1.74-2.411-0.387-0.538-0.77-1.069-0.853-1.183s-0.216-0.387-0.299-0.603c-0.083-0.216 0.034-1.315 0.182-2.074s0.273-1.399 0.28-1.433c0.004-0.030-0.47 0.588-1.058 1.437-0.584 0.849-1.054 1.672-1.042 1.823s-0.55 0.394-1.331 0.201c-0.781-0.193-1.524-0.425-1.649-0.516s-0.413-1.243-0.595-2.309l-0.387-2.274c-0.182-1.065-0.318-2.153-0.307-2.418s0.303-1.008 0.444-1.274c0.144-0.265 0.679-1.266 1.187-2.218l1.895-3.544c0.512-0.951 1.054-1.865 1.213-2.028 0.155-0.163 0.588-0.364 0.607-0.368s0.898-0.205 1.952-0.447l1.948-0.447c1.054-0.243 2.165-0.459 2.464-0.485 0.303-0.023 1.801 0.25 2.854 0.497l1.816 0.425c1.054 0.246 1.929 0.451 1.948 0.455s0.197 0.099 0.394 0.208c0.197 0.11 0.917 1.24 1.425 2.191l1.895 3.544c0.508 0.951 1.046 1.952 1.186 2.218 0.144 0.269 0.436 1.008 0.447 1.274zM30.503 4.63c-0.027 0.072-0.493 0.785-1.027 1.581-0.538 0.796-2.415 2.183-2.923 1.228l-0.864-1.615c-0.512-0.955-0.94-1.755-0.955-1.785-0.015-0.027 0.743-0.47 1.725-0.917l0.152-0.072c0.982-0.447 1.88-0.819 1.99-0.823s0.618 0.519 1.050 1.061c0.428 0.542 0.815 1.061 0.857 1.156 0 0 0 0 0 0.102-0.004 0.083-0.004 0.083-0.004 0.083z"></path>
<path d="M13.252 19.137c-0.231-0.462 0.004-0.845 0.523-0.845h4.447c0.519 0 0.754 0.383 0.523 0.845l-2.324 2.642c-0.231 0.466-0.61 0.466-0.845 0z"></path>
<path d="M16 24.804c0 0 0.315 0.288 0.698 0.637l1.509 1.38c0.387 0.349 0.804 0.387 0.933 0.076 0.129-0.307-0.117-0.8-0.546-1.092l-1.429-0.974c-0.428-0.292-0.781-0.542-0.777-0.553 0-0.011 0.004-0.47 0.004-0.989v-2.665c0-0.519-0.080-1.122-0.174-1.334 0 0 0 0-0.216 0s-0.216 0-0.216 0c-0.095 0.212-0.174 0.815-0.174 1.334v2.665c0 0.519 0 0.955 0 0.967s-0.349 0.28-0.777 0.576l-1.429 0.974c-0.428 0.292-0.675 0.785-0.546 1.092s0.55 0.273 0.933-0.076l1.512-1.38c0.383-0.349 0.697-0.637 0.697-0.637z"></path>
<path d="M7.725 12.147c-0.557 0.015-0.565 0.095-0.011 0.174l4.64 0.663c0.553 0.080 0.963 0.599 0.91 1.152l-0.591 2.070c-0.049 0.553 0.125 1.027 0.387 1.046 0.265 0.019 0.481 0.015 0.485-0.004 0-0.023 0.023-0.497 0.046-1.054l0.485-1.945c0.023-0.557 0.057-1.3 0.072-1.649s-0.133-0.629-0.326-0.625c-0.197 0.008-0.811 0.023-1.368 0.038z"></path>
<path d="M19.552 12.014c-0.557-0.015-1.175-0.034-1.368-0.038-0.197-0.008-0.345 0.277-0.33 0.625s0.049 1.092 0.072 1.649l0.485 1.945c0.023 0.557 0.046 1.031 0.049 1.054 0 0.023 0.22 0.027 0.481 0.004 0.265-0.019 0.44-0.489 0.387-1.046l-0.591-2.070c-0.049-0.553 0.36-1.077 0.91-1.152l4.64-0.663c0.553-0.080 0.55-0.155-0.011-0.174z"></path>
<path d="M11.895 12.848c0 0.356-0.288 0.644-0.644 0.644s-0.644-0.288-0.644-0.644c0-0.356 0.288-0.644 0.644-0.644s0.644 0.288 0.644 0.644z"></path>
<path d="M21.394 12.848c0 0.356-0.288 0.644-0.644 0.644s-0.644-0.288-0.644-0.644c0-0.356 0.288-0.644 0.644-0.644s0.644 0.288 0.644 0.644z"></path>
<path d="M13.441 20.775c-3.556 0.883-7.074 2.703-9.818 5.144-0.19 0.167 0.046 0.428 0.246 0.292 3.124-2.081 6.023-3.897 9.647-4.992 0.273-0.080 0.212-0.512-0.076-0.444z"></path>
<path d="M13.536 22.041c-2.926 0.273-5.69 3.124-7.214 5.47-0.099 0.152 0.099 0.353 0.243 0.22 2.157-2.043 3.912-4.716 7.036-5.33 0.235-0.046 0.167-0.383-0.064-0.36z"></path>
<path d="M13.794 23.269c-2.835 0.758-5.125 4.083-6.198 6.653-0.076 0.178 0.178 0.296 0.288 0.152 1.785-2.369 3.033-5.337 6.020-6.456 0.193-0.072 0.091-0.402-0.11-0.349z"></path>
<path d="M18.441 21.211c3.632 1.099 6.569 2.93 9.697 5.015 0.212 0.14 0.402-0.155 0.22-0.315-2.722-2.418-6.232-4.246-9.761-5.121-0.273-0.072-0.436 0.334-0.155 0.421z"></path>
<path d="M18.415 22.405c3.101 0.61 4.86 3.275 7.002 5.307 0.155 0.148 0.368-0.034 0.25-0.212-1.516-2.335-4.295-5.189-7.218-5.462-0.239-0.023-0.262 0.322-0.034 0.368z"></path>
<path d="M18.111 23.625c2.98 1.118 4.23 4.094 6.012 6.463 0.117 0.155 0.345-0.011 0.273-0.178-1.065-2.555-3.347-5.879-6.16-6.63-0.224-0.061-0.353 0.258-0.125 0.345z"></path>
<path d="M10.947 5.866c0 0.716-0.466 1.3-1.039 1.3s-1.039-0.584-1.039-1.3c0-0.72 0.466-1.3 1.039-1.3 0.576 0 1.039 0.584 1.039 1.3z"></path>
<path d="M9.544 8.364c0 0.478-0.387 0.868-0.864 0.868s-0.868-0.387-0.868-0.868c0-0.478 0.387-0.868 0.868-0.868 0.478 0 0.864 0.39 0.864 0.868z"></path>
<path d="M13.494 5.54c-0.174 0.546-0.538 0.921-0.811 0.834s-0.356-0.603-0.178-1.149c0.174-0.546 0.538-0.921 0.811-0.834 0.269 0.087 0.353 0.603 0.178 1.149z"></path>
<path d="M12.187 8.629c0 0.288-0.273 0.519-0.607 0.519s-0.607-0.231-0.607-0.519c0-0.288 0.273-0.519 0.607-0.519s0.607 0.235 0.607 0.519z"></path>
<path d="M24.973 18.557c-0.212 0.428-0.042 0.948 0.39 1.164 0.428 0.212 0.948 0.042 1.164-0.387 0.212-0.428 0.038-0.948-0.39-1.164-0.432-0.22-0.951-0.046-1.164 0.387z"></path>
<path d="M25.174 16.34c-0.087 0.569 0.068 1.065 0.353 1.107 0.284 0.046 0.588-0.379 0.675-0.948s-0.068-1.065-0.353-1.107c-0.284-0.042-0.584 0.383-0.675 0.948z"></path>
<path d="M23.581 17.659c-0.129 0.258 0.011 0.588 0.311 0.735 0.299 0.152 0.648 0.064 0.773-0.193 0.129-0.258-0.011-0.588-0.311-0.735-0.299-0.152-0.648-0.061-0.773 0.193z"></path>
</svg>
