<!-- Generated by IcoMoon.io -->
<svg version="1.1" xmlns="http://www.w3.org/2000/svg" width="32" height="32" viewBox="0 0 32 32">
<title>reason</title>
<path d="M0 0v32h32v-32h-32zM15.36 29.187l-1.773-3.387h-2.387v3.387h-3.2v-12.267h5.507c3.253 0 5.107 1.587 5.107 4.32 0 1.853-0.773 3.2-2.187 3.947l2.56 4h-3.627zM30.507 29.187h-9.84v-12.267h9.653v2.56h-6.453v2.293h5.84v2.533l-5.84 0.013v2.307h6.653v2.56zM15.573 21.333c0 1.24-0.747 1.907-2.040 1.907h-2.333v-3.76h2.333c1.293 0 2.040 0.653 2.040 1.867z"></path>
</svg>
