<!-- Generated by IcoMoon.io -->
<svg version="1.1" xmlns="http://www.w3.org/2000/svg" width="32" height="32" viewBox="0 0 32 32">
<title>retropie</title>
<path d="M10.737 16.382h10.998c2.611 0 5.63 2.268 4.713 4.713l-2.357 6.285c-0.917 2.445-2.102 4.713-4.713 4.713h-6.285c-2.611 0-3.797-2.268-4.713-4.713l-2.357-6.285c-0.917-2.445 2.102-4.713 4.713-4.713z"></path>
<path d="M16.236 14.699c-0 0-0 0-0 0-0.532 0-1.025 0.083-1.429 0.225l0.008-0.003c-0.251-0.046-0.54-0.073-0.842-0.073-0.228 0-0.449 0.015-0.659 0.044l0.018-0.002c-0.505 0.069-0.934 0.209-1.253 0.396l-0.003 0.002c-0.061-0.003-0.132-0.004-0.203-0.004-0.459 0-0.889 0.062-1.258 0.17l0.012-0.003c-0.44 0.129-0.786 0.316-1.002 0.54l-0.006 0.008c-0.518 0.048-0.968 0.171-1.315 0.344h0c-0.349 0.174-0.596 0.4-0.69 0.653l-0.002 0.008c-0.462 0.111-0.836 0.283-1.086 0.495l-0.006 0.006c-0.209 0.179-0.333 0.393-0.333 0.622 0 0.037 0.003 0.073 0.009 0.109l-0.001-0.005c-0.378 0.161-0.657 0.374-0.793 0.617l-0.004 0.009c-0.053 0.096-0.084 0.207-0.084 0.321 0 0.152 0.054 0.297 0.154 0.432l-0.006-0.009c-0.278 0.198-0.445 0.444-0.446 0.709v0c0 0.266 0.167 0.512 0.452 0.715l-0.005-0.004c-0.093 0.126-0.147 0.271-0.147 0.422 0 0.114 0.030 0.224 0.087 0.328l-0.004-0.009c0.139 0.253 0.418 0.467 0.793 0.626l0.004 0.001c-0.005 0.031-0.008 0.067-0.008 0.103 0 0.229 0.123 0.444 0.339 0.628l-0.006-0.006c0.257 0.22 0.632 0.393 1.081 0.501l0.015 0.003c0.097 0.259 0.342 0.484 0.689 0.658h-0c0.348 0.175 0.8 0.298 1.304 0.345l0.015 0.001c0.222 0.231 0.566 0.418 0.992 0.543l0.012 0.003c0.358 0.105 0.788 0.167 1.247 0.167 0.073 0 0.145-0.002 0.217-0.005l-0.009 0c0.321 0.189 0.747 0.328 1.233 0.396l0.018 0.002c0.193 0.027 0.415 0.042 0.644 0.042 0.303 0 0.593-0.027 0.862-0.076l-0.017 0.003c0.396 0.139 0.887 0.222 1.417 0.222h0c0 0 0 0 0 0 0.532 0 1.025-0.083 1.429-0.225l-0.008 0.003c0.251 0.046 0.54 0.073 0.842 0.073 0.228 0 0.449-0.015 0.659-0.044l-0.017 0.002c0.505-0.069 0.934-0.209 1.253-0.396l0.003-0.002c0.061 0.003 0.132 0.004 0.203 0.004 0.459 0 0.889-0.062 1.258-0.17l-0.012 0.003c0.44-0.129 0.786-0.316 1.002-0.541l0.006-0.008c0.518-0.048 0.968-0.171 1.315-0.344h-0c0.349-0.174 0.596-0.4 0.69-0.653l0.002-0.008c0.462-0.111 0.836-0.283 1.086-0.495l0.006-0.006c0.209-0.179 0.333-0.393 0.333-0.622 0-0.037-0.003-0.073-0.009-0.109l0.001 0.005c0.378-0.161 0.657-0.374 0.793-0.617l0.004-0.009c0.053-0.096 0.084-0.207 0.084-0.321 0-0.152-0.054-0.297-0.154-0.432l0.006 0.009c0.278-0.198 0.445-0.444 0.446-0.709v-0c-0-0.266-0.167-0.512-0.451-0.715l0.005 0.004c0.093-0.126 0.148-0.271 0.148-0.422 0-0.114-0.030-0.224-0.087-0.328l0.004 0.009c-0.139-0.253-0.418-0.467-0.793-0.626l-0.004-0.001c0.005-0.031 0.008-0.067 0.008-0.103 0-0.229-0.123-0.444-0.339-0.628l0.006 0.006c-0.257-0.22-0.632-0.393-1.081-0.501l-0.015-0.003c-0.097-0.259-0.342-0.484-0.689-0.658h0c-0.348-0.175-0.8-0.298-1.304-0.345l-0.015-0.001c-0.222-0.231-0.566-0.418-0.992-0.543l-0.012-0.003c-0.358-0.105-0.788-0.167-1.247-0.167-0.073 0-0.145 0.002-0.217 0.005l0.009-0c-0.321-0.189-0.747-0.328-1.233-0.396l-0.018-0.002c-0.193-0.027-0.415-0.042-0.644-0.042-0.303 0-0.593 0.027-0.862 0.076l0.017-0.003c-0.396-0.139-0.887-0.222-1.417-0.222h-0z"></path>
<path stroke="#000" stroke-linejoin="miter" stroke-linecap="round" stroke-miterlimit="4" stroke-width="3.3668" fill="#000" d="M16.236 16.943v-9.988"></path>
<path d="M21.286 5.16c0 2.789-2.261 5.050-5.050 5.050s-5.050-2.261-5.050-5.050c0-2.789 2.261-5.050 5.050-5.050s5.050 2.261 5.050 5.050z"></path>
</svg>
