<!-- Generated by IcoMoon.io -->
<svg version="1.1" xmlns="http://www.w3.org/2000/svg" width="32" height="32" viewBox="0 0 32 32">
<title>retroarch</title>
<path fill="#000" d="M9.296 8.496l2.678 4.018h-5.357l-0.67 2.678h-3.013l1.004-4.018h-2.009l-2.009 8.035h4.821l-0.804 2.678h4.687l-3.348 4.018h4.018l2.678-4.018h8.035l2.678 4.018h4.018l-3.348-4.018h4.687l-0.804-2.678h4.821l-2.009-8.035h-2.009l1.004 4.018h-3.013l-0.67-2.678h-5.357l2.678-4.018h-2.009l-2.678 4.018h-4.018l-2.678-4.018z"></path>
<path fill="#fff" d="M19.671 15.151v3.113h3.113v-3.113z"></path>
<path fill="#fff" d="M9.088 15.151v3.113h3.113v-3.113z"></path>
</svg>
