<!-- Generated by IcoMoon.io -->
<svg version="1.1" xmlns="http://www.w3.org/2000/svg" width="32" height="32" viewBox="0 0 32 32">
<title>tor</title>
<path fill="#000" opacity="0.2" d="M30.070 16.548c0 7.582-6.147 13.729-13.729 13.729s-13.729-6.147-13.729-13.729c0-7.582 6.147-13.729 13.729-13.729s13.729 6.147 13.729 13.729z"></path>
<path fill="#000" d="M32.080 16.018c0 8.848-7.173 16.021-16.021 16.021s-16.021-7.173-16.021-16.021c0-8.848 7.173-16.021 16.021-16.021s16.021 7.173 16.021 16.021z"></path>
<path fill="#000" opacity="0.2" d="M16.059 2.858c-7.57 0-13.733 6.163-13.733 13.733s6.163 13.733 13.733 13.733c7.57 0 13.733-6.163 13.733-13.733s-6.163-13.733-13.733-13.733zM16.059 5.28c6.26 0 11.31 5.049 11.31 11.31s-5.049 11.31-11.31 11.31c-6.26 0-11.31-5.049-11.31-11.31s5.049-11.31 11.31-11.31zM16.059 7.435c-5.041 0-9.155 4.114-9.155 9.155s4.114 9.155 9.155 9.155c5.041 0 9.155-4.114 9.155-9.155s-4.114-9.155-9.155-9.155zM16.059 9.932c3.692 0 6.658 2.966 6.658 6.658s-2.966 6.658-6.658 6.658c-3.692 0-6.658-2.966-6.658-6.658s2.966-6.658 6.658-6.658zM16.059 12.013c-2.528 0-4.578 2.049-4.578 4.578v0c0 2.528 2.049 4.578 4.578 4.578v0c2.528 0 4.578-2.049 4.578-4.578v0c0-2.528-2.049-4.578-4.578-4.578v0z"></path>
<path fill="#000" stroke="#fff" stroke-linejoin="round" stroke-linecap="round" stroke-miterlimit="4" stroke-width="2.4234" d="M28.58 16.018c0 6.915-5.606 12.521-12.521 12.521s-12.521-5.606-12.521-12.521c0-6.915 5.606-12.521 12.521-12.521s12.521 5.606 12.521 12.521z"></path>
<path fill="#000" stroke="#fff" stroke-linejoin="round" stroke-linecap="round" stroke-miterlimit="4" stroke-width="2.4968" d="M23.966 16.018c0 4.367-3.54 7.907-7.907 7.907s-7.907-3.54-7.907-7.907c0-4.367 3.54-7.907 7.907-7.907s7.907 3.54 7.907 7.907z"></path>
<path fill="#fff" d="M20.637 16.018c0 2.528-2.049 4.578-4.578 4.578s-4.578-2.049-4.578-4.578c0-2.528 2.049-4.578 4.578-4.578s4.578 2.049 4.578 4.578z"></path>
<path fill="#000" d="M16.059 31.238c-8.848 0-15.22-6.372-15.22-15.22s6.372-15.22 15.22-15.22z"></path>
<path fill="#000" opacity="0.1" d="M16.059-0.003c-8.848 0-16.021 7.173-16.021 16.021v0c0.004 0.139 0.008 0.256 0.014 0.372l-0.001-0.037c0.133-8.742 7.248-15.778 16.008-15.784h0.001c8.727 0.005 15.821 6.986 16.009 15.668l0 0.017c0.003-0.037 0.007-0.12 0.011-0.202l0.001-0.035c0-8.848-7.173-16.021-16.021-16.021v0z"></path>
</svg>
